<svg width="34" height="34" viewBox="0 0 34 34" fill="none" xmlns="http://www.w3.org/2000/svg">
<path d="M7.54688 26.4531C10.2031 29.0573 13.3542 30.3594 17 30.3594C20.6458 30.3594 23.7708 29.0573 26.375 26.4531C29.0312 23.7969 30.3594 20.6458 30.3594 17C30.3594 13.3542 29.0312 10.2292 26.375 7.625C23.7708 4.96875 20.6458 3.64062 17 3.64062C13.3542 3.64062 10.2031 4.96875 7.54688 7.625C4.94271 10.2292 3.64062 13.3542 3.64062 17C3.64062 20.6458 4.94271 23.7969 7.54688 26.4531ZM5.20312 5.28125C8.48438 2 12.4167 0.359375 17 0.359375C21.5833 0.359375 25.4896 2 28.7188 5.28125C32 8.51042 33.6406 12.4167 33.6406 17C33.6406 21.5833 32 25.5156 28.7188 28.7969C25.4896 32.026 21.5833 33.6406 17 33.6406C12.4167 33.6406 8.48438 32.026 5.20312 28.7969C1.97396 25.5156 0.359375 21.5833 0.359375 17C0.359375 12.4167 1.97396 8.51042 5.20312 5.28125ZM20.75 7.85938C22.1042 8.43229 23.1979 9.13542 24.0312 9.96875C24.8646 10.8021 25.5677 11.8958 26.1406 13.25C26.7135 14.6042 27 15.8542 27 17C27 18.1458 26.7135 19.3958 26.1406 20.75C25.6198 22.1042 24.9427 23.1979 24.1094 24.0312C22.1823 26.0104 19.8385 27 17.0781 27C14.3177 27 11.9479 26.0104 9.96875 24.0312L17 17V7C18.1458 7 19.3958 7.28646 20.75 7.85938Z" fill="#3C2769"/>
</svg>
