<svg width="36" height="34" viewBox="0 0 36 34" fill="none" xmlns="http://www.w3.org/2000/svg">
<path d="M27.2812 5.35938L28.375 7.625L30.6406 8.64062L28.375 9.73438L27.2812 12L26.2656 9.73438L24 8.64062L26.2656 7.625L27.2812 5.35938ZM17.3594 7.23438V3.64062H20.6406C21.5781 3.64062 22.4375 3.90104 23.2188 4.42188L25.6406 2C24.9635 1.47917 24.1823 1.08854 23.2969 0.828125C22.4635 0.515625 21.5781 0.359375 20.6406 0.359375C20.1719 0.359375 19.5469 0.359375 18.7656 0.359375C18.0365 0.359375 17.2292 0.359375 16.3438 0.359375C15.5104 0.359375 14.7292 0.359375 14 0.359375C13.2708 0.359375 12.6719 0.359375 12.2031 0.359375C11.7344 0.359375 11.5 0.359375 11.5 0.359375V3.64062H14V7.23438C12.5417 7.54688 11.2396 8.19792 10.0938 9.1875C9 10.1771 8.21875 11.401 7.75 12.8594H14.3906L24 16.4531V15.3594C24 14.0052 23.7135 12.7812 23.1406 11.6875C22.5677 10.5417 21.7604 9.57812 20.7188 8.79688C19.7292 8.01562 18.6094 7.49479 17.3594 7.23438ZM0.640625 33.6406H7.35938V15.3594H0.640625V33.6406ZM32.3594 25.3594H20.6406L17.2031 24.1094L17.75 22.5469L20.6406 23.6406H25.3281C25.901 23.6406 26.3698 23.4583 26.7344 23.0938C27.151 22.7292 27.3594 22.2604 27.3594 21.6875C27.3594 20.8021 26.9167 20.1771 26.0312 19.8125L13.9219 15.3594H10.6406V30.3594L22.3594 33.6406L35.6406 28.6406C35.6406 27.7552 35.3021 27 34.625 26.375C34 25.6979 33.2448 25.3594 32.3594 25.3594ZM32.3594 20.3594C33.2448 20.3594 34 20.0469 34.625 19.4219C35.3021 18.7448 35.6406 17.9375 35.6406 17C35.6406 16.5312 35.4583 15.9323 35.0938 15.2031C34.7812 14.474 34.4167 13.7448 34 13.0156C33.5833 12.2344 33.1927 11.6094 32.8281 11.1406C32.5156 10.6198 32.3594 10.3594 32.3594 10.3594C32.3594 10.3594 32.1771 10.6198 31.8125 11.1406C31.5 11.6094 31.1094 12.2344 30.6406 13.0156C30.224 13.7448 29.8333 14.474 29.4688 15.2031C29.1562 15.9323 29 16.5312 29 17C29 17.9375 29.3125 18.7448 29.9375 19.4219C30.6146 20.0469 31.4219 20.3594 32.3594 20.3594Z" fill="#3C2769"/>
</svg>
