<svg width="124" height="24" viewBox="0 0 124 24" fill="none" xmlns="http://www.w3.org/2000/svg">
<path d="M13.1475 2.58368L9.82677 21.4163" stroke="#3C2769" stroke-width="1.56345" stroke-linecap="square"/>
<path d="M13.5117 6.43884L9.46354 17.5611" stroke="#3C2769" stroke-width="1.56345" stroke-linecap="square"/>
<path d="M12.998 9.38312L9.97637 14.6168" stroke="#3C2769" stroke-width="1.56345" stroke-linecap="square"/>
<path d="M17.9473 4.30066L5.0263 19.6993" stroke="#3C2769" stroke-width="1.56345" stroke-linecap="square"/>
<path d="M13.377 10.4142L9.5973 13.5857" stroke="#3C2769" stroke-width="1.56345" stroke-linecap="square"/>
<path d="M15.2666 10.6244L7.7076 13.3756" stroke="#3C2769" stroke-width="1.56345" stroke-linecap="square"/>
<path d="M21.6875 12H1.28696" stroke="#3C2769" stroke-width="1.56345" stroke-linecap="square"/>
<path d="M19.7891 13.4637L3.18601 10.5362" stroke="#3C2769" stroke-width="1.56345" stroke-linecap="square"/>
<path d="M20.0693 15.1236L2.90509 8.87634" stroke="#3C2769" stroke-width="1.56345" stroke-linecap="square"/>
<path d="M14.3857 13.6733L8.58906 10.3266" stroke="#3C2769" stroke-width="1.56345" stroke-linecap="square"/>
<path d="M18.1162 17.5627L4.85736 6.43719" stroke="#3C2769" stroke-width="1.56345" stroke-linecap="square"/>
<path d="M14.4482 15.5287L8.52622 8.47113" stroke="#3C2769" stroke-width="1.56345" stroke-linecap="square"/>
<path d="M14.1973 19.4471L8.7762 4.55286" stroke="#3C2769" stroke-width="1.56345" stroke-linecap="square"/>
<path d="M11.8262 13.926L11.147 10.0739" stroke="#3C2769" stroke-width="1.56345" stroke-linecap="square"/>
<path d="M11.4873 16.182V7.81793" stroke="#3C2769" stroke-width="1.56345" stroke-linecap="square"/>
<path d="M10.0039 20.4073L12.9688 3.59271" stroke="#3C2769" stroke-width="1.56345" stroke-linecap="square"/>
<path d="M10.6094 13.5202L12.3648 10.4798" stroke="#3C2769" stroke-width="1.56345" stroke-linecap="square"/>
<path d="M8.8457 15.1485L14.1296 8.85144" stroke="#3C2769" stroke-width="1.56345" stroke-linecap="square"/>
<path d="M8.65039 14.3806L14.3247 9.61932" stroke="#3C2769" stroke-width="1.56345" stroke-linecap="square"/>
<path d="M2.50586 17.1852L20.4682 6.8147" stroke="#3C2769" stroke-width="1.56345" stroke-linecap="square"/>
<path d="M1.96191 13.6796L21.0125 10.3204" stroke="#3C2769" stroke-width="1.56345" stroke-linecap="square"/>
<path d="M4.84766 12H18.1266" stroke="#3C2769" stroke-width="1.56345" stroke-linecap="square"/>
<path d="M1.70508 6.3526L21.268 17.6473" stroke="#3C2769" stroke-width="1.56345" stroke-linecap="square"/>
<path d="M8.76367 9.7146L14.2109 14.2853" stroke="#3C2769" stroke-width="1.56345" stroke-linecap="square"/>
<path d="M10.1562 10.4139L12.8179 13.586" stroke="#3C2769" stroke-width="1.56345" stroke-linecap="square"/>
<path d="M7.18652 4.55115L15.7877 19.4488" stroke="#3C2769" stroke-width="1.56345" stroke-linecap="square"/>
<path d="M11.4873 1.92157V22.0784" stroke="#3C2769" stroke-width="1.56345" stroke-linecap="square"/>
<path d="M12.0078 10.5685L10.9658 13.4314" stroke="#3C2769" stroke-width="1.56345" stroke-linecap="square"/>
<path d="M21.2148 6.38361L1.75917 17.6163" stroke="#3C2769" stroke-width="1.56345" stroke-linecap="square"/>
<path d="M15.2129 12H7.76144" stroke="#3C2769" stroke-width="1.56345" stroke-linecap="square"/>
<path d="M32 17.0919H40.3851V14.8085H34.7694V3.99298H32V17.0919Z" fill="#3C2769"/>
<path d="M46.0657 17.2837C49.0462 17.2837 50.9011 15.2434 50.9011 12.2182C50.9011 9.17368 49.0462 7.13977 46.0657 7.13977C43.0854 7.13977 41.2305 9.17368 41.2305 12.2182C41.2305 15.2434 43.0854 17.2837 46.0657 17.2837ZM46.0784 15.1731C44.7033 15.1731 43.9999 13.9131 43.9999 12.199C43.9999 10.4849 44.7033 9.21846 46.0784 9.21846C47.428 9.21846 48.1317 10.4849 48.1317 12.199C48.1317 13.9131 47.428 15.1731 46.0784 15.1731Z" fill="#3C2769"/>
<path d="M56.558 20.9806C59.3659 20.9806 61.3614 19.7014 61.3614 17.1878V7.2677H58.656V8.91785H58.5537C58.189 8.11837 57.3895 7.13977 55.7457 7.13977C53.5904 7.13977 51.7676 8.81552 51.7676 12.1606C51.7676 15.4289 53.5392 16.9511 55.7523 16.9511C57.3192 16.9511 58.1955 16.1644 58.5537 15.3522H58.6688V17.1494C58.6688 18.499 57.8053 19.0234 56.622 19.0234C55.4196 19.0234 54.8119 18.499 54.588 17.9041L52.0683 18.2431C52.3945 19.7909 53.9101 20.9806 56.558 20.9806ZM56.6158 14.9044C55.279 14.9044 54.5498 13.8427 54.5498 12.1478C54.5498 10.4785 55.2662 9.30799 56.6158 9.30799C57.9396 9.30799 58.6815 10.4273 58.6815 12.1478C58.6815 13.8811 57.9268 14.9044 56.6158 14.9044Z" fill="#3C2769"/>
<path d="M67.4289 17.2837C70.4095 17.2837 72.2644 15.2434 72.2644 12.2182C72.2644 9.17368 70.4095 7.13977 67.4289 7.13977C64.4484 7.13977 62.5938 9.17368 62.5938 12.2182C62.5938 15.2434 64.4484 17.2837 67.4289 17.2837ZM67.4417 15.1731C66.0666 15.1731 65.3632 13.9131 65.3632 12.199C65.3632 10.4849 66.0666 9.21846 67.4417 9.21846C68.7913 9.21846 69.495 10.4849 69.495 12.199C69.495 13.9131 68.7913 15.1731 67.4417 15.1731Z" fill="#3C2769"/>
<path d="M73.4949 17.0918H76.2195V7.26768H73.4949V17.0918ZM74.8637 6.00128C75.676 6.00128 76.3411 5.38088 76.3411 4.61977C76.3411 3.86503 75.676 3.24463 74.8637 3.24463C74.0577 3.24463 73.3926 3.86503 73.3926 4.61977C73.3926 5.38088 74.0577 6.00128 74.8637 6.00128Z" fill="#3C2769"/>
<path d="M77.8623 20.7759H80.587V15.5184H80.6703C81.0475 16.3371 81.8725 17.2517 83.4587 17.2517C85.6973 17.2517 87.4434 15.4801 87.4434 12.1926C87.4434 8.81552 85.6205 7.13977 83.4652 7.13977C81.8215 7.13977 81.0347 8.11837 80.6703 8.91785H80.5487V7.2677H77.8623V20.7759ZM80.5294 12.1798C80.5294 10.4273 81.2714 9.30799 82.5954 9.30799C83.945 9.30799 84.6612 10.4785 84.6612 12.1798C84.6612 13.8939 83.932 15.0835 82.5954 15.0835C81.2841 15.0835 80.5294 13.9323 80.5294 12.1798Z" fill="#3C2769"/>
<path d="M96.8932 10.0691C96.65 8.25908 95.1919 7.13977 92.7101 7.13977C90.1966 7.13977 88.5401 8.30383 88.5463 10.197C88.5401 11.6681 89.4674 12.6211 91.3863 13.0048L93.0876 13.3438C93.9446 13.5165 94.3349 13.8299 94.3476 14.3224C94.3349 14.9044 93.7015 15.3202 92.7487 15.3202C91.7763 15.3202 91.1304 14.9044 90.9641 14.105L88.2842 14.2457C88.5401 16.1261 90.1391 17.2837 92.7421 17.2837C95.2877 17.2837 97.1106 15.9854 97.1171 14.0474C97.1106 12.6275 96.1832 11.7768 94.2771 11.3867L92.499 11.0285C91.5844 10.8302 91.2455 10.5168 91.252 10.0435C91.2455 9.45511 91.9106 9.07135 92.7549 9.07135C93.7015 9.07135 94.2643 9.58941 94.3987 10.2226L96.8932 10.0691Z" fill="#3C2769"/>
<path d="M104.593 12.9089C104.6 14.2265 103.698 14.9172 102.719 14.9172C101.689 14.9172 101.024 14.1945 101.018 13.0368V7.2677H98.293V13.5229C98.2995 15.819 99.6425 17.2198 101.619 17.2198C103.096 17.2198 104.158 16.4586 104.6 15.3074H104.702V17.0918H107.318V7.2677H104.593V12.9089Z" fill="#3C2769"/>
<path d="M108.957 17.0919H111.682V11.1948C111.682 10.1075 112.373 9.38476 113.281 9.38476C114.176 9.38476 114.778 9.99876 114.778 10.9645V17.0919H117.419V11.0925C117.419 10.0755 118.001 9.38476 118.992 9.38476C119.862 9.38476 120.515 9.92842 120.515 11.0221V17.0919H123.233V10.4849C123.233 8.35501 121.966 7.13977 120.137 7.13977C118.698 7.13977 117.579 7.87532 117.176 9.001H117.073C116.76 7.86251 115.756 7.13977 114.407 7.13977C113.083 7.13977 112.078 7.84332 111.669 9.001H111.554V7.2677H108.957V17.0919Z" fill="#3C2769"/>
</svg>
